<?xml version="1.0"?>
<svg xmlns="http://www.w3.org/2000/svg" xmlns:xlink="http://www.w3.org/1999/xlink" version="1.1" id="Capa_1" x="0px" y="0px" viewBox="0 0 512 512" style="enable-background:new 0 0 512 512;" xml:space="preserve" width="512px" height="512px"><g><g>
	<g>
		<path d="M84.029,244.305c-5.515,0-9.981,4.476-9.981,9.981c0,5.515,4.466,9.981,9.981,9.981s9.981-4.466,9.981-9.981    C94.01,248.782,89.544,244.305,84.029,244.305z" data-original="#000000" class="active-path" data-old_color="#00FF87" fill="#6C7789"/>
	</g>
</g><g>
	<g>
		<path d="M124.648,228.931c-2.944-2.954-7.732-2.954-10.686,0c-2.954,2.954-2.954,7.743,0,10.696    c22.254,22.254,22.326,58.326,0,80.672c-4.76,4.76-1.334,12.904,5.343,12.904c1.936,0,3.871-0.736,5.343-2.218    C152.913,302.72,152.798,257.081,124.648,228.931z" data-original="#000000" class="active-path" data-old_color="#00FF87" fill="#6C7789"/>
	</g>
</g><g>
	<g>
		<path d="M187.496,200.622c-2.954-2.954-7.743-2.954-10.696,0c-2.954,2.954-2.954,7.743,0,10.696    c37.923,37.902,37.949,99.341,0,137.29c-2.954,2.954-2.954,7.743,0,10.686c2.909,2.93,7.712,2.984,10.696,0    C231.326,315.466,231.349,244.475,187.496,200.622z" data-original="#000000" class="active-path" data-old_color="#00FF87" fill="#6C7789"/>
	</g>
</g><g>
	<g>
		<path d="M277.262,200.622c-2.954-2.954-7.743-2.954-10.696,0c-2.944,2.954-2.944,7.743,0,10.696    c29.657,29.657,35.718,72.93,20.082,108.124c-1.704,3.811,0.02,8.277,3.831,9.981c3.831,1.703,8.292-0.027,9.981-3.841    c6.412-14.417,9.668-29.771,9.668-45.619C310.128,249.991,298.453,221.814,277.262,200.622z" data-original="#000000" class="active-path" data-old_color="#00FF87" fill="#6C7789"/>
	</g>
</g><g>
	<g>
		<path d="M282.373,342.237c-3.176-2.722-7.944-2.349-10.666,0.817c-1.633,1.905-3.357,3.771-5.142,5.555    c-4.726,4.742-1.366,12.904,5.353,12.904c3.815,0,5.81-2.272,11.271-8.61C285.912,349.728,285.539,344.959,282.373,342.237z" data-original="#000000" class="active-path" data-old_color="#00FF87" fill="#6C7789"/>
	</g>
</g><g>
	<g>
		<path d="M485.97,349.739L418,265.698l66.518-83.969c7.265-8.213-1.012-20.863-11.493-17.451    c-59.783,19.478-92.589,43.653-110.161,61.911c-11.456-15.253-33.483-30.623-49.793-40.003    c-48.725-49.306-83.469-51.606-82.971-53.271c1.643-2.798,5.353-5.898,5.353-11.876c0-8.438-7.663-15.057-16.282-13.277    c-8.216,1.724-16.483,3.932-24.569,6.593c-3.962,1.301-6.119,5.575-4.819,9.537c1.3,3.972,5.575,6.13,9.537,4.829    c6.24-2.057,12.602-3.821,18.943-5.273l-0.555,0.796c-6.11,8.739-1.578,20.819,8.63,23.49c7.944,2.067,20.586,6.624,36.304,16.564    c-48.343-14.654-98.012-12.057-153.652,17.804c17.542-15.546,38.663-30.749,63.201-42.473c3.76-1.794,5.363-6.311,3.559-10.081    c-1.805-3.76-6.311-5.363-10.081-3.559c-57.098,27.29-97.2,70.469-132.421,121.855c-13.368,19.508-13.368,44.722,0,64.229    c37.88,55.279,115.212,95.519,181.862,92.096c2.852,0.685,116.604,2.807,181.233-17.876c6.839-2.19,7.041-11.844,0.285-14.305    l-52.816-19.259c11.644-9.407,20.863-18.751,28.205-34.083c26.63,29.962,65.494,46.758,105.211,49.107    C487.09,368.203,492.292,356.837,485.97,349.739z M368.686,377.895c-26.717,5.677-57.64,8.592-84.563,10.064    c2.378-1.129,22.004-8.553,45.16-24.43c0.001-0.001,0.002-0.001,0.003-0.002L368.686,377.895z M339.949,336.259    c-37.171,32.19-89.373,52.999-132.985,52.999c-59.461,0-127.226-36.101-161.234-85.723c-9.809-14.326-9.809-32.825,0-47.141    c33.659-49.226,101.402-85.733,161.234-85.733c43.613,0,95.815,20.808,132.985,53.009    C374.176,253.276,374.279,306.509,339.949,336.259z M377.996,302.173c5.39-20.999,2.966-43.355-6.916-62.788    c14.659-16.191,42.615-37.685,92.81-55.973l-61.507,77.638c-2.198,2.783-2.178,6.704,0.05,9.456l65.681,81.207    C444.161,348.659,405.66,337.973,377.996,302.173z" data-original="#000000" class="active-path" data-old_color="#00FF87" fill="#6C7789"/>
	</g>
</g><g>
	<g>
		<path d="M477.037,50.488H34.963C15.687,50.488,0,66.175,0,85.451v341.098c0,19.276,15.687,34.963,34.963,34.963h442.075    c19.276,0,34.963-15.687,34.963-34.963V85.451C512,66.175,496.313,50.488,477.037,50.488z M496.878,426.549    c0,10.938-8.902,19.84-19.84,19.84H34.963c-10.938,0-19.84-8.902-19.84-19.84V85.451c0-10.938,8.902-19.84,19.84-19.84h442.075    c10.938,0,19.84,8.902,19.84,19.84V426.549z" data-original="#000000" class="active-path" data-old_color="#00FF87" fill="#6C7789"/>
	</g>
</g></g> </svg>
